<svg id="Layer_1" data-name="Layer 1" xmlns="http://www.w3.org/2000/svg" viewBox="0 0 80 80"><defs><style>.cls-1{fill:none;stroke:#231f20;stroke-linecap:round;stroke-linejoin:round;stroke-width:2px;}</style></defs><path class="cls-1" d="M14.8,7.71l20.28.47.32,20.26L63.35,56l.31.37L64,57.71l.21.4.23.51.3.37.42.35.18.3.28.27.37.14.31.37,0,.21-.16.27-.75.61-1,.46-.26.84-.22.95v1.45l.2,1.85-.2,1-.56.47.12.53.68.06.42.35.09.43-.37.31-.68.94-.42.09L63,70.55,48.91,72.13l-.17-.75.06-.68L47.85,68l-1-1.34-1-.54-.08-.32-.4-1.25-.83-.25-1.2-.84-.58-.1-.12-.53-1.23-.49-2.3-1.26-.52-.33-.92-.12-3.33-1.92L34,58.48l-1.08-.31-.74.17-.6-.2-.44-.45L30.61,57l.07-.69L31.25,55l-.43-.91-.43-.9-.64-.86-2.34-1.92L26.87,50l-.3-1.28L26,48.14l-.49-.22L25,47.59l-.27-1.17-.34-.48-.48-.67-.21-.4-.09-.42,0-.56.16-.26,1.22-.5.54-.57-.05-.22-1-.44L23.58,41l-.64-.86-.44-.91-.31-1.37-.43-.91-.08-.32.12-.47.6.19.73.28.31.38.34,0,.53-.12L24,35.42l-.52-.32-.36-.59L23,34l.66,0,.73.28-.17-.74-.36-.59L23,32.63l-.6-.19-.79,0-.32.07.1.42.18.3.1.42.25.61-.19.16-.32.52L21,35l-.49-.22L20,34.66l-.18-.74-.57-.54L19,33.32,18.72,33l-.27-1.17.21-.05.38-.31,0-.66-.75-.83-.65-.41-.21-.4-.14-.64-.57-1-.51-.78-.49-.67-.34-1.48.13-1.37L15.31,22l.11-.48-.4-.8-.86-.81-.31-.37-.14-.64-.57-.54-.25-1.06v-1.9l.15-.81.11-.48.21,0,.31.38.23.51.15.18L14.7,15l.06-.69v-2l.11-1.93v-2l0-.66"/><path class="cls-1" d="M14.8,7.71l20.28.47.32,20.26L63.35,56l.31.37L64,57.71l.21.4.23.51.3.37.42.35.18.3.28.27.37.14.31.37,0,.21-.16.27-.75.61-1,.46-.26.84-.22.95v1.45l.2,1.85-.2,1-.56.47.12.53.68.06.42.35.09.43-.37.31-.68.94-.42.09L63,70.55,48.91,72.13l-.17-.75.06-.68L47.85,68l-1-1.34-1-.54-.08-.32-.4-1.25-.83-.25-1.2-.84-.58-.1-.12-.53-1.23-.49-2.3-1.26-.52-.33-.92-.12-3.33-1.92L34,58.48l-1.08-.31-.74.17-.6-.2-.44-.45L30.61,57l.07-.69L31.25,55l-.43-.91-.43-.9-.64-.86-2.34-1.92L26.87,50l-.3-1.28L26,48.14l-.49-.22L25,47.59l-.27-1.17-.34-.48-.48-.67-.21-.4-.09-.42,0-.56.16-.26,1.22-.5.54-.57-.05-.22-1-.44L23.58,41l-.64-.86-.44-.91-.31-1.37-.43-.91-.08-.32.12-.47.6.19.73.28.31.38.34,0,.53-.12L24,35.42l-.52-.32-.36-.59L23,34l.66,0,.73.28-.17-.74-.36-.59L23,32.63l-.6-.19-.79,0-.32.07.1.42.18.3.1.42.25.61-.19.16-.32.52L21,35l-.49-.22L20,34.66l-.18-.74-.57-.54L19,33.32,18.72,33l-.27-1.17.21-.05.38-.31,0-.66-.75-.83-.65-.41-.21-.4-.14-.64-.57-1-.51-.78-.49-.67-.34-1.48.13-1.37L15.31,22l.11-.48-.4-.8-.86-.81-.31-.37-.14-.64-.57-.54-.25-1.06v-1.9l.15-.81.11-.48.21,0,.31.38.23.51.15.18L14.7,15l.06-.69v-2l.11-1.93v-2l0-.66Z"/></svg>